<svg xmlns="http://www.w3.org/2000/svg" width="17.996" height="17.996" viewBox="0 0 17.996 17.996">
    <g id="local_post_office-24px-3" opacity="0.65">
        <path id="Path_3072" fill="none" d="M0 0h18v18H0z" data-name="Path 3072"/>
        <path id="Path_3073" fill="#fff" d="M15.5 4h-12A1.5 1.5 0 0 0 2 5.5v9A1.5 1.5 0 0 0 3.5 16h12a1.5 1.5 0 0 0 1.5-1.5v-9A1.5 1.5 0 0 0 15.5 4zm-.3 3.187l-4.9 3.067a1.485 1.485 0 0 1-1.59 0L3.8 7.187a.637.637 0 1 1 .675-1.08L9.5 9.249l5.024-3.142a.637.637 0 1 1 .675 1.08z" data-name="Path 3073" transform="translate(-.5 -1.001)"/>
    </g>
</svg>
