<svg xmlns="http://www.w3.org/2000/svg" width="24" height="21" viewBox="0 0 24 21">
    <path id="Language_icon" fill="#fff" stroke="rgba(0,0,0,0)" stroke-miterlimit="10" d="M9.469 13.252v-.034a7.342 7.342 0 0 0 4.385-6.284 6.76 6.76 0 0 1 2.38-.43c.126 0 .258 0 .392.012a.45.45 0 0 0 .087 0 .411.411 0 0 0 .344-.468l-.225-1.457 2.856 2.849a.466.466 0 0 0 .076.06 6.754 6.754 0 1 1-10.3 5.757zm8.333 1.73l.64 1.41a.584.584 0 1 0 1.062-.484L16.588 9.48a.582.582 0 0 0-1.061 0l-2.917 6.428a.583.583 0 1 0 1.061.484l.64-1.41zM3.2 12.116a.466.466 0 0 0-.076-.06 6.526 6.526 0 1 1 3.4.956c-.121 0-.248 0-.378-.011a.374.374 0 0 0-.086 0 .412.412 0 0 0-.345.468l.211 1.366zm4.792-1.983h1.432l.049-5.294 1.045.065V3.552l-3.07-.016-.016 1.319.555.017v2.345c0 .326-.731.439-1.111.114a3.98 3.98 0 0 1-.4-.406 1.591 1.591 0 0 0 .842-1.743c-.2-.9-1.665-1.841-1.665-1.841-1.045-.538-2.63.294-2.63.294l.719 1.613c2.026-1.193 2.568-.433 2.568-.433-.088 1.313-2.12 1.234-2.12 1.234L4.972 7.2a1.881 1.881 0 0 0 .846-.141l.265.312a.864.864 0 0 1-.657.984c-2.913.031-2.491-3.124-2.491-3.124l-.83.281s-.175 3.65 2.509 4.455a1.95 1.95 0 0 0 2.759-1.811c.486.456.633.323.633.323zm6.855 3.679l1.215-2.678 1.216 2.678z" data-name="Language icon" opacity="0.75" transform="translate(.5 .5)"/>
</svg>
