<svg xmlns="http://www.w3.org/2000/svg" width="576.528" height="243.028" viewBox="0 0 576.528 243.028">
    <defs>
        <style>
            .prefix__cls-10,.prefix__cls-2,.prefix__cls-5,.prefix__cls-7,.prefix__cls-8{fill:none}.prefix__cls-2{stroke:#333338}.prefix__cls-2,.prefix__cls-7,.prefix__cls-8{stroke-linecap:round}.prefix__cls-2,.prefix__cls-7{stroke-width:4px}.prefix__cls-4{fill:#48484c;stroke:#48484c}.prefix__cls-4,.prefix__cls-5{stroke-width:2px}.prefix__cls-5,.prefix__cls-7,.prefix__cls-8{stroke:#707070}.prefix__cls-5,.prefix__cls-6{opacity:.65}.prefix__cls-8{stroke-width:3px}.prefix__cls-9{stroke:none}
        </style>
    </defs>
    <g id="prefix__No_Favourites_illus" data-name="No Favourites illus" transform="translate(-671.768 -316.259)">
        <g id="prefix__Group_1122" data-name="Group 1122" transform="rotate(-20 1552.103 -2146.943)">
            <path id="prefix__Path_4530" d="M89.976 26.436c7.429-11.784 16.882-20.388 29.854-24.3 33-9.96 62.582 16.26 60.014 51.274-1.987 27.106-16.393 45.831-35.453 62.54-17.609 15.436-35.439 30.621-52.487 46.69-1.009.952-1.662 2.235-3.432.52-20.361-19.737-42.8-37.17-63.1-56.973C15.355 96.414 6.891 85.571 3.351 71.66s-5.24-27.935-.173-41.8C14.064.078 52.078-9.57 76.621 11.012a68.3 68.3 0 0 1 13.355 15.424z" data-name="Path 4530" style="stroke-width:6px;stroke:#333338;fill:none"/>
            <path id="prefix__Path_4532" d="M137.452 16.606s28.285 6.591 25.1 36.95" class="prefix__cls-2" data-name="Path 4532"/>
            <path id="prefix__Path_4533" d="M139.059 16.715s.379-1.312-.578 3.086" class="prefix__cls-2" data-name="Path 4533" transform="translate(22.798 45.544)"/>
        </g>
        <path id="prefix__Path_4531" d="M-9168.589-5767.411s30.031-13.012 39.5-9.4c7.316.937 29.459 8.741 37.331 11.227 4.5 1.422-7.826 18.829-12.748 23.39z" data-name="Path 4531" transform="translate(10074.613 6270.854)" style="fill:#101019"/>
        <g id="prefix__Group_964" data-name="Group 964" transform="translate(673.068 494.494)">
            <path id="prefix__Path_344" d="M929.836 536.469c-4.832 0-13.559-2.464-25.28-7.139l-1.382-.555c-6.151-2.472-16.416-6.626-22.074-6.531-4.919.068-13.91 3.925-19.282 6.229-.729.312-1.4.6-2 .854-3.98 1.676-17.485 7.139-24.375 7.139h-.026c-6.235-.012-23.323-6.846-24.048-7.137l.265-.66c.176.071 17.686 7.073 23.785 7.086h.025c6.756 0 20.15-5.421 24.1-7.084.6-.253 1.271-.54 2-.853 5.771-2.476 14.492-6.216 19.553-6.286h.165c5.8 0 16.041 4.115 22.183 6.584l1.381.553c11.873 4.738 20.62 7.191 25.294 7.087 5.076-.11 14.338-4.016 19.872-6.349.632-.267 1.22-.514 1.75-.736 6.364-2.648 17.974-7.1 24.23-7.138h.086c6.133 0 17.155 4.1 23.755 6.558l1.551.576c12.741 4.7 22.114 7.128 27.146 7.09l.01.711c-6.456.075-18.461-3.832-27.4-7.134l-1.552-.576c-6.553-2.438-17.5-6.513-23.505-6.513h-.083c-6.364.04-18.877 4.967-23.96 7.084-.532.221-1.117.468-1.748.734-5.581 2.352-14.922 6.292-20.134 6.4-.105.005-.203.006-.302.006z" class="prefix__cls-4" data-name="Path 344" transform="translate(-684.245 -497.413)"/>
            <path id="prefix__Path_345" d="M1184.749 536.469c-4.833 0-13.56-2.464-25.28-7.139l-1.382-.555c-6.152-2.472-16.429-6.6-22.075-6.531-4.918.068-13.909 3.925-19.28 6.228-.73.313-1.4.6-2 .855-3.98 1.676-17.486 7.139-24.376 7.139h-.026c-6.234-.012-23.323-6.846-24.048-7.137l.266-.66c.176.071 17.686 7.073 23.784 7.086h.025c6.756 0 20.151-5.421 24.1-7.084.6-.253 1.271-.541 2-.853 5.771-2.476 14.492-6.216 19.552-6.286h.166c5.8 0 16.041 4.115 22.185 6.584l1.38.553c11.872 4.738 20.618 7.206 25.294 7.087 5.076-.11 14.337-4.016 19.872-6.349.632-.267 1.219-.514 1.75-.736 6.363-2.648 17.972-7.1 24.229-7.138v.712c-6.364.04-18.876 4.967-23.96 7.084-.531.221-1.117.468-1.748.734-5.58 2.352-14.921 6.292-20.133 6.4-.098.005-.196.006-.295.006z" class="prefix__cls-4" data-name="Path 345" transform="translate(-665.287 -497.413)"/>
            <path id="prefix__Path_346" d="M1116.812 514.067c-.161 0-.318 0-.472-.005-5.492-.159-15.318-4.188-21.19-6.6l-1.324-.541c-11.3-4.6-19.635-7.054-24.1-7.085-5.916-.026-16.843 3.953-23.379 6.34-.744.271-1.435.524-2.063.75-5.96 2.148-20.607 7.133-28.129 7.133h-.062c-6.873-.026-19.773-4.5-26.7-6.906l-.647-.225c-5.613-1.945-20.464-7.093-27.974-7.093h-.144c-4.82.043-13.849 2.494-26.112 7.09l-1.438.54c-6.459 2.436-17.267 6.514-23.243 6.593h-.209c-6.486 0-18.321-3.869-27.154-7.135l-1.551-.577c-6.544-2.439-17.477-6.513-23.471-6.513h-.084c-6.354.04-18.848 4.968-23.925 7.084-.53.221-1.116.468-1.746.734-5.572 2.353-14.9 6.292-20.105 6.4-4.78.089-13.592-2.365-25.535-7.137l-1.381-.554c-6.085-2.449-16.231-6.533-21.884-6.533h-.158c-4.912.069-13.89 3.925-19.255 6.229-.727.312-1.4.6-2 .854-3.973 1.676-17.46 7.14-24.34 7.14h-.026c-6.225-.013-23.29-6.846-24.013-7.138l.265-.659c.176.07 17.661 7.072 23.751 7.085h.025c6.746 0 20.121-5.42 24.064-7.084.6-.252 1.269-.539 2-.852 5.763-2.476 14.471-6.218 19.524-6.287h.166c5.792 0 16.017 4.116 22.151 6.585l1.379.553c11.857 4.737 20.59 7.2 25.258 7.086 5.069-.11 14.318-4.015 19.844-6.349.631-.266 1.218-.513 1.749-.735 6.354-2.649 17.947-7.1 24.2-7.139h.085c6.124 0 17.131 4.1 23.721 6.558l1.549.576c12.724 4.7 22.082 7.158 27.107 7.09 5.852-.078 16.587-4.127 23-6.547l1.44-.543c12.338-4.622 21.452-7.088 26.354-7.134h.147c7.631 0 22.565 5.174 28.209 7.132l.647.224c6.891 2.392 19.718 6.843 26.474 6.868h.059c7.409 0 21.964-4.955 27.89-7.091.626-.225 1.317-.477 2.059-.748 6.546-2.392 17.479-6.384 23.531-6.384h.1c4.549.032 12.972 2.5 24.359 7.138l1.325.542c5.827 2.389 15.579 6.387 20.941 6.543 7.368.216 21.869-4.886 27.769-7.09.643-.239 1.358-.511 2.128-.8 6.231-2.364 16.659-6.32 22.389-6.331h.024c6.712 0 19.876 5.184 24.835 7.137l.536.21c6.073 2.394 17.378 6.849 23.4 6.876 5.1.038 13.921-3.182 20.368-5.522 1.625-.591 3.161-1.149 4.413-1.571 6-2.026 24.409-7.067 24.594-7.117l.187.686c-.185.051-18.573 5.086-24.554 7.106-1.243.42-2.776.976-4.4 1.565-6.472 2.35-15.328 5.565-20.555 5.565h-.058c-6.152-.028-17.537-4.516-23.653-6.926l-.535-.211c-4.925-1.939-18-7.086-24.576-7.086h-.023c-5.6.011-15.953 3.938-22.139 6.283-.772.294-1.488.565-2.133.806-5.826 2.18-19.97 7.147-27.576 7.147z" class="prefix__cls-4" data-name="Path 346" transform="translate(-693 -499.126)"/>
            <path id="prefix__Path_347" d="M1045.627 559.056h-.383c-4.464-.129-12.452-3.4-17.224-5.354l-1.076-.44c-9.189-3.736-15.962-5.726-19.588-5.75-4.809-.021-13.691 3.209-19 5.147-.605.221-1.167.425-1.677.609-4.845 1.743-16.752 5.789-22.866 5.789h-.05c-5.587-.021-16.072-3.655-21.707-5.606l-.525-.182c-4.563-1.579-16.635-5.758-22.74-5.758h-.116c-3.918.035-11.259 2.025-21.226 5.754l-1.169.439c-5.25 1.978-14.036 5.287-18.893 5.352h-.17c-5.273 0-14.893-3.141-22.074-5.792l-1.26-.467c-5.319-1.979-14.206-5.286-19.079-5.286h-.068c-5.165.032-15.322 4.032-19.448 5.75-.432.179-.907.38-1.419.6-4.531 1.911-12.112 5.108-16.343 5.2-3.886.073-11.05-1.919-20.758-5.793l-1.123-.45c-4.946-1.988-13.194-5.3-17.788-5.3h-.129c-3.993.056-11.291 3.186-15.652 5.056-.591.254-1.138.488-1.625.693-3.229 1.361-14.193 5.8-19.785 5.8h-.021c-5.06-.011-18.932-5.558-19.52-5.793l.215-.536c.143.058 14.357 5.742 19.306 5.751h.02c5.484 0 16.357-4.4 19.561-5.749.487-.206 1.031-.438 1.622-.692 4.684-2.01 11.763-5.046 15.871-5.1h.133c4.708 0 13.021 3.341 18.007 5.345l1.122.45c9.638 3.845 16.736 5.842 20.531 5.751 4.121-.088 11.639-3.258 16.131-5.153l1.422-.6c5.165-2.15 14.588-5.762 19.667-5.793h.07c4.977 0 13.925 3.328 19.282 5.323l1.258.467c10.344 3.818 17.951 5.81 22.036 5.754 4.756-.062 13.483-3.35 18.7-5.313l1.171-.44c10.029-3.753 17.437-5.755 21.422-5.79h.119c6.2 0 18.343 4.2 22.931 5.789l.526.182c5.6 1.941 16.028 5.554 21.519 5.574h.048c6.023 0 17.854-4.021 22.671-5.755.508-.183 1.07-.387 1.674-.608 5.321-1.941 14.208-5.181 19.129-5.181h.079c3.7.026 10.545 2.029 19.8 5.793l1.078.44c4.736 1.939 12.663 5.184 17.023 5.31 5.989.177 17.777-3.966 22.572-5.754.523-.195 1.1-.416 1.731-.652 5.065-1.919 13.542-5.13 18.2-5.138h.019c5.455 0 16.156 4.207 20.188 5.792l.436.171c4.937 1.943 14.126 5.559 19.019 5.58 4.143.031 11.316-2.582 16.557-4.482 1.322-.479 2.569-.931 3.587-1.275 4.877-1.645 19.841-5.736 19.992-5.777l.152.556c-.15.042-15.1 4.128-19.958 5.768-1.011.341-2.257.792-3.576 1.27-5.261 1.908-12.459 4.518-16.709 4.518h-.046c-5-.023-14.256-3.665-19.229-5.621l-.435-.172c-4-1.574-14.63-5.752-19.977-5.752h-.018c-4.552.009-12.968 3.2-18 5.1-.628.238-1.21.459-1.733.653-4.733 1.746-16.231 5.778-22.414 5.778z" class="prefix__cls-4" data-name="Path 347" transform="translate(-692.379 -495.472)"/>
        </g>
        <g id="prefix__Ellipse_69" class="prefix__cls-5" data-name="Ellipse 69" transform="translate(1027.482 437.924)">
            <circle cx="5" cy="5" r="5" class="prefix__cls-9"/>
            <circle cx="5" cy="5" r="4" class="prefix__cls-10"/>
        </g>
        <g id="prefix__Ellipse_70" class="prefix__cls-5" data-name="Ellipse 70" transform="translate(806.803 414.937)">
            <circle cx="7" cy="7" r="7" class="prefix__cls-9"/>
            <circle cx="7" cy="7" r="6" class="prefix__cls-10"/>
        </g>
        <g id="prefix__Group_1125" class="prefix__cls-6" data-name="Group 1125" transform="rotate(-16 1624.154 -3285.934)">
            <path id="prefix__Line_1" d="M0 0L0 12" class="prefix__cls-7" data-name="Line 1" transform="translate(6)"/>
            <path id="prefix__Line_2" d="M0 0L0 12" class="prefix__cls-7" data-name="Line 2" transform="rotate(90 3 9)"/>
        </g>
        <g id="prefix__Group_1124" class="prefix__cls-6" data-name="Group 1124" transform="translate(833.267 466.406)">
            <path id="prefix__Line_1-2" d="M0 0L0 8" class="prefix__cls-8" data-name="Line 1" transform="translate(4)"/>
            <path id="prefix__Line_2-2" d="M0 0L0 8" class="prefix__cls-8" data-name="Line 2" transform="rotate(90 2 6)"/>
        </g>
    </g>
</svg>
