<svg xmlns="http://www.w3.org/2000/svg" width="12" height="12" viewBox="0 0 12 12">
    <path fill="#8bc5ff" d="M6 0a6 6 0 1 0 6 6 6 6 0 0 0-6-6zm1.249 9.3q-.463.183-.739.278a1.95 1.95 0 0 1-.641.1A1.278 1.278 0 0 1 5 9.4a.883.883 0 0 1-.31-.694 2.522 2.522 0 0 1 .023-.335c.016-.114.041-.242.075-.386l.382-1.366c.034-.131.063-.255.087-.371a1.647 1.647 0 0 0 .035-.322.5.5 0 0 0-.108-.364.612.612 0 0 0-.413-.1 1.084 1.084 0 0 0-.307.046c-.1.032-.195.061-.269.089l.1-.421q.379-.155.726-.265a2.146 2.146 0 0 1 .658-.111 1.254 1.254 0 0 1 .859.269.894.894 0 0 1 .3.7q0 .089-.021.313a2.1 2.1 0 0 1-.077.412l-.383 1.36c-.031.109-.059.234-.085.374a1.977 1.977 0 0 0-.037.318.457.457 0 0 0 .121.37.68.68 0 0 0 .42.1 1.218 1.218 0 0 0 .318-.049 1.808 1.808 0 0 0 .257-.086zm-.068-5.527a.918.918 0 0 1-.648.25.927.927 0 0 1-.65-.25.8.8 0 0 1-.271-.606.806.806 0 0 1 .271-.607.921.921 0 0 1 .65-.252.91.91 0 0 1 .648.252.818.818 0 0 1 0 1.213z"/>
</svg>
