<svg xmlns="http://www.w3.org/2000/svg" width="32" height="32" viewBox="0 0 32 32">
    <g id="Twitter" transform="translate(-1159 -1622)">
        <rect id="Rectangle_43" width="32" height="32" fill="#29c5f6" data-name="Rectangle 43" rx="16" transform="translate(1159 1622)"/>
        <path id="bird" fill="#fff" d="M3993.425 2493.36a3.924 3.924 0 0 1 2.88.951l2.081-.658a5.378 5.378 0 0 1-1.28 1.608l1.76-.437a6.169 6.169 0 0 1-1.68 1.536c.1 4.617-2.751 7.5-6.48 8.633-2.482.755-6.4.3-7.84-1.024 2 .06 3.837-.272 4.72-1.243a3.005 3.005 0 0 1-2.959-2.123h.08a1.651 1.651 0 0 0 1.2-.072 2.735 2.735 0 0 1-2.4-2.635c.026-.024-.025-.268 0-.292l1.28.366v-.074a4.914 4.914 0 0 1-1.12-1.316c-.4-.86-.168-2.357.321-2.634 1.108 1.57 4.129 2.938 6.64 3.146l.08-.146a3.024 3.024 0 0 1 2.718-3.586z" transform="translate(-2815.865 -861.357)"/>
    </g>
</svg>
