<svg xmlns="http://www.w3.org/2000/svg" width="32" height="32" viewBox="0 0 32 32">
    <defs>
        <radialGradient id="radial-gradient" cx=".018" cy=".909" r="1.446" gradientTransform="matrix(.052 -.999 .849 .044 -.754 .886)" gradientUnits="objectBoundingBox">
            <stop offset="0" stop-color="#fed576"/>
            <stop offset=".263" stop-color="#f47133"/>
            <stop offset=".609" stop-color="#bc3081"/>
            <stop offset="1" stop-color="#4c63d2"/>
        </radialGradient>
        <style>
            .cls-2{fill:#fff}
        </style>
    </defs>
    <g id="Insta" transform="translate(-1279 -1622)">
        <rect id="Rectangle_46" width="32" height="32" fill="url(#radial-gradient)" data-name="Rectangle 46" rx="16" transform="translate(1279 1622)"/>
        <g id="Symbol" transform="translate(1287 1630)">
            <g id="Group_228" data-name="Group 228">
                <path id="Path_24" d="M112.6 102.041c2.139 0 2.391 0 3.24.046a4.35 4.35 0 0 1 1.484.273 2.472 2.472 0 0 1 .917.6 2.529 2.529 0 0 1 .6.916 4.57 4.57 0 0 1 .278 1.487c.042.844.047 1.1.047 3.231s0 2.387-.047 3.231a4.2 4.2 0 0 1-.278 1.487 2.678 2.678 0 0 1-1.52 1.513 4.252 4.252 0 0 1-1.484.273c-.844.041-1.1.046-3.24.046s-2.391 0-3.24-.046a4.35 4.35 0 0 1-1.484-.273 2.471 2.471 0 0 1-.917-.6 2.529 2.529 0 0 1-.6-.916 4.57 4.57 0 0 1-.278-1.487c-.042-.844-.047-1.1-.047-3.231s0-2.387.047-3.231a4.2 4.2 0 0 1 .278-1.487 2.679 2.679 0 0 1 1.52-1.513 4.253 4.253 0 0 1 1.484-.273c.844-.036 1.1-.046 3.24-.046m0-1.441c-2.176 0-2.448.01-3.3.051a6.027 6.027 0 0 0-1.945.37 3.842 3.842 0 0 0-1.415.926 3.913 3.913 0 0 0-.923 1.42 5.754 5.754 0 0 0-.372 1.94c-.042.849-.047 1.122-.047 3.293s.01 2.444.047 3.293a6.055 6.055 0 0 0 .372 1.94 4.105 4.105 0 0 0 2.338 2.346 5.762 5.762 0 0 0 1.945.37c.855.041 1.127.051 3.3.051s2.448-.01 3.3-.051a6.027 6.027 0 0 0 1.945-.37 3.842 3.842 0 0 0 1.415-.926 3.913 3.913 0 0 0 .923-1.42 5.754 5.754 0 0 0 .372-1.94c.042-.849.047-1.122.047-3.293s-.01-2.444-.047-3.293a6.055 6.055 0 0 0-.372-1.94 4.106 4.106 0 0 0-2.338-2.346 5.762 5.762 0 0 0-1.945-.37c-.849-.041-1.127-.051-3.3-.051z" class="cls-2" data-name="Path 24" transform="translate(-104.6 -100.6)"/>
                <path id="Path_25" d="M183.281 176.2a4.441 4.441 0 1 0 3.155 1.276 4.41 4.41 0 0 0-3.155-1.276zm0 7.272a2.883 2.883 0 1 1 2.048-.828 2.863 2.863 0 0 1-2.048.828z" class="cls-2" data-name="Path 25" transform="translate(-175.281 -172.615)"/>
                <ellipse id="Ellipse_17" cx=".868" cy=".882" class="cls-2" data-name="Ellipse 17" rx=".868" ry=".882" transform="translate(11.46 2.797)"/>
            </g>
        </g>
    </g>
</svg>
