<svg xmlns="http://www.w3.org/2000/svg" width="32" height="32" viewBox="0 0 32 32">
    <g id="Linkedin" transform="translate(-1319 -1622)">
        <rect id="Rectangle_47" width="32" height="32" fill="#007ab9" data-name="Rectangle 47" rx="16" transform="translate(1319 1622)"/>
        <g id="Group_233" data-name="Group 233" transform="translate(1328 1632)">
            <path id="Path_28" fill="#f1f2f2" d="M43.068 33.165v5.8h-3.43v-5.411c0-1.36-.5-2.288-1.737-2.288a1.873 1.873 0 0 0-1.759 1.23 2.263 2.263 0 0 0-.114.82v5.653H32.6s.046-9.172 0-10.121h3.431v1.434c-.007.011-.017.022-.023.033h.023v-.033a3.416 3.416 0 0 1 3.091-1.672c2.257 0 3.949 1.447 3.949 4.555zm-14.059-9.2a1.756 1.756 0 1 0-.045 3.5h.022a1.757 1.757 0 1 0 .023-3.5zm-1.737 15H30.7V28.848h-3.428z" data-name="Path 28" transform="translate(-28.068 -24.969)"/>
        </g>
    </g>
</svg>
